<svg width="40" height="40" viewBox="0 0 40 40" fill="none" xmlns="http://www.w3.org/2000/svg">
<path d="M33.1843 23.9987H22.9053V32.8258H33.1843V23.9987Z" fill="white"/>
<path d="M18.8817 24.1323H6.81543V25.473H18.8817V24.1323Z" fill="white"/>
<path d="M18.8817 31.3514H6.81543V32.6922H18.8817V31.3514Z" fill="white"/>
<path d="M18.8817 27.7422H6.81543V29.083H18.8817V27.7422Z" fill="white"/>
<path d="M32.5334 0.000305176H7.46719C3.34273 0.0010083 0.00125 3.34312 0 7.46695V31.1923C0.00195313 36.0566 3.94242 39.9984 8.80797 39.9997H31.1927C36.0575 39.9984 39.9987 36.0572 40 31.1923V7.46695C39.9994 3.34312 36.6572 0.0010083 32.5334 0.000305176ZM36.3129 31.1923C36.3123 32.6103 35.742 33.8817 34.813 34.8126C33.8821 35.7416 32.6107 36.3119 31.1927 36.3125H8.80797C7.39 36.3118 6.11789 35.7416 5.18703 34.8126C4.25797 33.8817 3.68844 32.6103 3.68719 31.1923V9.27312H36.313V31.1923H36.3129Z" fill="white"/>
<path d="M6.94977 20.9303H9.65156C11.1914 20.9303 12.1236 20.2599 12.1236 18.8562C12.1236 18.0084 11.6418 17.4212 11.1705 17.2431V17.2222C11.6419 16.9603 11.998 16.4785 11.998 15.704C11.998 14.5721 11.2752 13.8081 9.72562 13.8081H6.94977C6.88758 13.8081 6.8457 13.85 6.8457 13.9128V20.8249C6.8457 20.8883 6.88758 20.9303 6.94977 20.9303ZM8.38555 15.1168C8.38555 15.0755 8.40516 15.054 8.44836 15.054H9.53773C10.1237 15.054 10.4694 15.3577 10.4694 15.8808C10.4694 16.4052 10.1237 16.7194 9.53773 16.7194H8.44836C8.40516 16.7194 8.38555 16.6985 8.38555 16.6566V15.1168ZM8.38555 17.9652C8.38555 17.924 8.40516 17.9031 8.44836 17.9031H9.62023C10.25 17.9031 10.5845 18.2487 10.5845 18.7941C10.5845 19.3486 10.25 19.6844 9.62023 19.6844H8.44836C8.40516 19.6844 8.38555 19.6629 8.38555 19.621V17.9652Z" fill="white"/>
<path d="M14.1813 20.9303H18.8222C18.8844 20.9303 18.9263 20.8884 18.9263 20.8249V19.6629C18.9263 19.5994 18.8844 19.5581 18.8222 19.5581H15.6797C15.6372 19.5581 15.6169 19.5372 15.6169 19.4947V13.9129C15.6169 13.8501 15.5757 13.8082 15.5121 13.8082H14.1812C14.1183 13.8082 14.0771 13.8501 14.0771 13.9129V20.825C14.0771 20.8884 14.1184 20.9303 14.1813 20.9303Z" fill="white"/>
<path d="M22.8681 21.0448C24.1152 21.0448 25.0992 20.4694 25.4658 19.3171C25.6229 18.8248 25.6642 18.4268 25.6642 17.3688C25.6642 16.3109 25.6229 15.9128 25.4658 15.4205C25.0992 14.269 24.1152 13.6928 22.8681 13.6928C21.6215 13.6928 20.637 14.269 20.271 15.4205C20.1132 15.9128 20.0713 16.3109 20.0713 17.3688C20.0713 18.4268 20.1132 18.8248 20.271 19.3171C20.6369 20.4695 21.6215 21.0448 22.8681 21.0448ZM21.7472 15.8395C21.9043 15.3473 22.2821 15.054 22.868 15.054C23.4546 15.054 23.8317 15.3473 23.9888 15.8395C24.0726 16.0916 24.1039 16.4359 24.1039 17.3689C24.1039 18.3005 24.0725 18.6468 23.9888 18.8976C23.8317 19.3905 23.4546 19.6845 22.868 19.6845C22.2821 19.6845 21.9043 19.3905 21.7472 18.8976C21.6641 18.6468 21.632 18.3005 21.632 17.3689C21.632 16.4359 21.6641 16.0916 21.7472 15.8395Z" fill="white"/>
<path d="M30.3093 21.0448C31.5656 21.0448 32.5503 20.4065 32.907 19.2641C33.032 18.8772 33.0838 18.2906 33.0838 17.6621V17.0748C33.0838 17.0133 33.042 16.9707 32.9798 16.9707H30.5293C30.4658 16.9707 30.4239 17.0133 30.4239 17.0748V18.0817C30.4239 18.1439 30.4658 18.1858 30.5293 18.1858H31.4923C31.5341 18.1858 31.5552 18.2074 31.5552 18.2487C31.5552 18.5517 31.5237 18.7723 31.4713 18.9511C31.3246 19.4219 30.8637 19.6844 30.3296 19.6844C29.7116 19.6844 29.3234 19.3904 29.1662 18.8975C29.0831 18.6467 29.0517 18.3004 29.0517 17.3688C29.0517 16.4359 29.0831 16.1014 29.1662 15.85C29.3234 15.3577 29.7012 15.0539 30.3093 15.0539C30.8952 15.0539 31.2507 15.3053 31.5341 15.7871C31.5552 15.8395 31.6075 15.8605 31.6815 15.8394L32.8016 15.3681C32.8638 15.3367 32.8756 15.2739 32.8435 15.2104C32.5077 14.3514 31.6389 13.6928 30.3092 13.6928C29.0411 13.6928 28.0565 14.269 27.6899 15.4205C27.5327 15.9128 27.4902 16.3109 27.4902 17.3688C27.4902 18.4268 27.5328 18.8248 27.6899 19.3171C28.0566 20.4695 29.0412 21.0448 30.3093 21.0448Z" fill="white"/>
</svg>
