<svg width="40" height="40" viewBox="0 0 40 40" fill="none" xmlns="http://www.w3.org/2000/svg">
<path d="M35.6133 15.0508L35.6016 14.9922C35.5938 14.9531 35.5898 14.918 35.5781 14.8789C35.5703 14.8555 35.5625 14.8359 35.5586 14.8125C35.5469 14.7812 35.5391 14.7461 35.5234 14.7148C35.5156 14.6914 35.5039 14.6719 35.4922 14.6484C35.4766 14.6172 35.4609 14.5898 35.4453 14.5586C35.4336 14.5391 35.4219 14.5156 35.4062 14.4961C35.375 14.4492 35.3398 14.4023 35.3047 14.3555C35.2852 14.332 35.2617 14.3047 35.2383 14.2812C35.2227 14.2617 35.2031 14.2461 35.1836 14.2305C35.1602 14.207 35.1328 14.1875 35.1094 14.168C35.0898 14.1523 35.0703 14.1367 35.0469 14.1211C35.0391 14.1172 35.0312 14.1094 35.0234 14.1055L20.7461 4.60156C20.5258 4.45444 20.2669 4.37592 20.002 4.37592C19.7371 4.37592 19.4781 4.45444 19.2578 4.60156L4.97266 14.1133C4.96484 14.1172 4.95703 14.125 4.94922 14.1289C4.92969 14.1445 4.91016 14.1602 4.88672 14.1758C4.85937 14.1953 4.83594 14.2187 4.8125 14.2383C4.79297 14.2539 4.77734 14.2734 4.75781 14.2891C4.73438 14.3125 4.71094 14.3359 4.69141 14.3633C4.65234 14.4062 4.62109 14.4531 4.58984 14.5039C4.57812 14.5234 4.5625 14.543 4.55078 14.5664C4.53516 14.5937 4.51953 14.625 4.50391 14.6562C4.49219 14.6758 4.48437 14.6992 4.47266 14.7227C4.46094 14.7539 4.44922 14.7891 4.4375 14.8203C4.42969 14.8437 4.42187 14.8633 4.41797 14.8867C4.41016 14.9219 4.40234 14.9609 4.39453 15L4.38281 15.0586C4.375 15.1172 4.37109 15.1758 4.37109 15.2344V24.7461C4.37109 24.8047 4.375 24.8633 4.38281 24.9219L4.39453 24.9805L4.41797 25.0938C4.42578 25.1172 4.42969 25.1367 4.4375 25.1602C4.44922 25.1953 4.46094 25.2266 4.47266 25.2578C4.48047 25.2812 4.49219 25.3008 4.50391 25.3242C4.51953 25.3555 4.53125 25.3828 4.55078 25.4141C4.5625 25.4336 4.57422 25.457 4.58984 25.4766C4.60937 25.5039 4.625 25.5312 4.64844 25.5586L4.69531 25.6172C4.71484 25.6406 4.73828 25.668 4.76172 25.6914C4.77734 25.7109 4.79688 25.7266 4.81641 25.7422C4.83984 25.7656 4.86719 25.7852 4.89062 25.8047C4.91016 25.8203 4.92969 25.8359 4.95313 25.8516C4.96094 25.8555 4.96875 25.8633 4.97656 25.8672L19.2578 35.3789C19.4766 35.5273 19.7383 35.6055 20.0039 35.6055C20.2617 35.6055 20.5234 35.5312 20.75 35.3789L35.0312 25.8672C35.0391 25.8633 35.0469 25.8555 35.0547 25.8516C35.0742 25.8359 35.0937 25.8203 35.1172 25.8047C35.1445 25.7852 35.168 25.7617 35.1914 25.7422C35.2109 25.7266 35.2266 25.707 35.2461 25.6914C35.2695 25.668 35.293 25.6445 35.3125 25.6172L35.3594 25.5586L35.418 25.4766C35.4297 25.457 35.4453 25.4375 35.457 25.4141C35.4727 25.3828 35.4883 25.3555 35.5039 25.3242C35.5156 25.3047 35.5234 25.2812 35.5352 25.2578C35.5469 25.2266 35.5586 25.1914 35.5703 25.1602C35.5781 25.1406 35.5859 25.1172 35.5898 25.0938C35.6016 25.0586 35.6055 25.0195 35.6133 24.9805L35.625 24.9219C35.6328 24.8633 35.6367 24.8047 35.6367 24.7461V15.2266C35.625 15.168 35.6211 15.1094 35.6133 15.0508ZM21.3438 8.22266L31.8672 15.2305L27.168 18.3711L21.3477 14.4805V8.22266H21.3438ZM18.6562 8.22266V14.4805L12.8359 18.3711L8.13672 15.2305L18.6562 8.22266ZM7.05859 17.7383L10.418 19.9844L7.05859 22.2305V17.7383ZM18.6562 31.7422L8.13672 24.7344L12.8359 21.5938L18.6562 25.4844V31.7422ZM20 23.1562L15.25 19.9844L20 16.8086L24.75 19.9805L20 23.1562ZM21.3438 31.7422V25.4844L27.1641 21.5938L31.8633 24.7344L21.3438 31.7422ZM32.9414 22.2266L29.582 19.9805L32.9414 17.7344V22.2266Z" fill="white"/>
</svg>
