<svg width="200" height="200" viewBox="0 0 200 200" fill="none" xmlns="http://www.w3.org/2000/svg">
<path d="M138.163 0H131.974H125.023H98.2966C96.4761 0 95 1.74901 95 3.90811C95 6.06721 96.4761 7.81622 98.2966 7.81622H125.023H131.975H138.163C145.466 7.81622 151.407 14.8595 151.407 23.5165C151.407 32.1736 145.466 39.2169 138.163 39.2169H131.975H125.023H115.678C104.74 39.2169 95.8415 49.7666 95.8415 62.7334V80.0919C95.8415 82.2505 97.3168 84 99.1381 84C100.959 84 102.435 82.251 102.435 80.0919V62.7334C102.435 54.0764 108.375 47.0331 115.678 47.0331H125.023H131.975H138.163C149.101 47.0331 158 36.4833 158 23.5165C158 10.5497 149.101 0 138.163 0Z" fill="#DBDDDD"/>
<path d="M151.098 77.3012H9.65859C4.32344 77.3012 0 81.6262 0 86.9602V176.432C0 181.766 4.32344 186.091 9.65859 186.091H190.342C195.676 186.091 200 181.766 200 176.432V86.9602C200 81.6262 195.676 77.3016 190.342 77.3016H161.533" fill="#547475"/>
<path opacity="0.15" d="M6.95664 176.432V86.9602C6.95664 81.6262 11.2801 77.3016 16.6152 77.3016H9.65859C4.32344 77.3012 0 81.6262 0 86.9602V176.432C0 181.766 4.32344 186.091 9.65859 186.091H16.6152C11.2801 186.09 6.95664 181.766 6.95664 176.432Z" fill="#231F20"/>
<path d="M149.565 154.336C154.047 154.336 157.68 150.703 157.68 146.222C157.68 141.74 154.047 138.107 149.565 138.107C145.084 138.107 141.451 141.74 141.451 146.222C141.451 150.703 145.084 154.336 149.565 154.336Z" fill="#53CAF9"/>
<path d="M166.335 125.284C170.816 125.284 174.449 121.651 174.449 117.17C174.449 112.688 170.816 109.055 166.335 109.055C161.853 109.055 158.22 112.688 158.22 117.17C158.22 121.651 161.853 125.284 166.335 125.284Z" fill="#FFD70E"/>
<path d="M49.7934 125.959H42.1391V118.304C42.1391 116.864 40.9707 115.696 39.5305 115.696H33.2727C31.832 115.696 30.6641 116.864 30.6641 118.304V125.959H23.0094C21.5684 125.959 20.4008 127.127 20.4008 128.567V134.825C20.4008 136.266 21.5687 137.434 23.0094 137.434H30.6641V145.088C30.6641 146.528 31.8324 147.696 33.2727 147.696H39.5305C40.9711 147.696 42.1391 146.528 42.1391 145.088V137.434H49.7934C51.234 137.434 52.402 136.266 52.402 134.825V128.567C52.4023 127.127 51.2344 125.959 49.7934 125.959Z" fill="#F74848"/>
<path d="M82.2121 174.634C80.4113 174.634 78.9512 173.179 78.9512 171.378V171.369C78.9512 169.568 80.4113 168.108 82.2121 168.108C84.0129 168.108 85.473 169.567 85.473 171.369C85.473 173.17 84.0129 174.634 82.2121 174.634Z" fill="#8AACAD"/>
<path d="M117.788 174.634C115.987 174.634 114.527 173.179 114.527 171.378V171.369C114.527 169.568 115.987 168.108 117.788 168.108C119.589 168.108 121.049 169.567 121.049 171.369C121.049 173.17 119.589 174.634 117.788 174.634Z" fill="#8AACAD"/>
<path d="M105.929 174.634C104.129 174.634 102.668 173.179 102.668 171.378V171.369C102.668 169.568 104.129 168.108 105.929 168.108C107.73 168.108 109.19 169.567 109.19 171.369C109.19 173.17 107.73 174.634 105.929 174.634Z" fill="#8AACAD"/>
<path d="M94.0699 174.634C92.2691 174.634 90.809 173.179 90.809 171.378V171.369C90.809 169.568 92.2691 168.108 94.0699 168.108C95.8707 168.108 97.3309 169.567 97.3309 171.369C97.3309 173.17 95.8707 174.634 94.0699 174.634Z" fill="#8AACAD"/>
<path d="M117.788 108.479H82.2121C80.4113 108.479 78.9512 107.02 78.9512 105.218C78.9512 103.417 80.4113 101.957 82.2121 101.957H117.788C119.589 101.957 121.049 103.417 121.049 105.218C121.049 107.02 119.589 108.479 117.788 108.479Z" fill="#415B5B"/>
<path d="M117.788 123.887H82.2121C80.4113 123.887 78.9512 122.428 78.9512 120.626C78.9512 118.825 80.4113 117.365 82.2121 117.365H117.788C119.589 117.365 121.049 118.825 121.049 120.626C121.049 122.427 119.589 123.887 117.788 123.887Z" fill="#415B5B"/>
<path d="M117.788 139.295H82.2121C80.4113 139.295 78.9512 137.835 78.9512 136.034C78.9512 134.232 80.4113 132.773 82.2121 132.773H117.788C119.589 132.773 121.049 134.232 121.049 136.034C121.049 137.835 119.589 139.295 117.788 139.295Z" fill="#415B5B"/>
<path d="M117.788 154.701H82.2121C80.4113 154.701 78.9512 153.242 78.9512 151.44C78.9512 149.639 80.4113 148.179 82.2121 148.179H117.788C119.589 148.179 121.049 149.639 121.049 151.44C121.049 153.241 119.589 154.701 117.788 154.701Z" fill="#415B5B"/>
<path d="M87.4297 88.3484H112.571C115.452 88.3484 117.788 86.0125 117.788 83.1309V77.3012H82.2125V83.1309C82.2121 86.0121 84.5477 88.3484 87.4297 88.3484Z" fill="#8AACAD"/>
<path opacity="0.1" d="M89.1687 83.1309V77.3012H82.2121V83.1309C82.2121 86.0121 84.5476 88.3484 87.4297 88.3484H94.3863C91.5043 88.3484 89.1687 86.0121 89.1687 83.1309Z" fill="#231F20"/>
</svg>
