<svg width="200" height="200" viewBox="0 0 200 200" fill="none" xmlns="http://www.w3.org/2000/svg">
<path d="M139.587 0H133.174H125.97H98.2715C96.4649 0 95 1.83786 95 4.10445C95 6.37104 96.4649 8.20889 98.2715 8.20889H125.97H133.174H139.587C147.235 8.20889 153.457 16.0156 153.457 25.6105C153.457 35.2054 147.235 43.0121 139.587 43.0121H133.174H125.97H116.285C105.029 43.0121 95.8724 54.5009 95.8724 68.6221V97.8956C95.8724 100.162 97.3373 102 99.1439 102C100.951 102 102.415 100.162 102.415 97.8956V68.6221C102.415 59.0272 108.637 51.2205 116.285 51.2205H125.97H133.174H139.587C150.843 51.2205 160 39.7317 160 25.6105C160 11.4893 150.843 0 139.587 0Z" fill="#DBDDDD"/>
<path d="M187.012 103.487C178.987 95.4625 167.9 90.4984 155.655 90.4984H144.602H56.5629H44.3449C19.8543 90.4984 0 110.353 0 134.844C0 159.335 19.8543 179.189 44.3457 179.189C52.5684 179.189 60.2645 176.946 66.8652 173.046L66.8668 173.05C66.8668 173.05 97.5695 160.426 133.132 173.05L133.134 173.046C139.736 176.946 147.432 179.189 155.655 179.189C180.146 179.189 200 159.335 200 134.844C200 126.063 197.448 117.878 193.046 110.991" fill="#547475"/>
<g opacity="0.15">
<path d="M6.95664 134.844C6.95664 110.352 26.8109 90.498 51.3023 90.498H44.3457C19.8543 90.4984 0 110.353 0 134.844C0 159.335 19.8543 179.189 44.3457 179.189C45.5078 179.189 46.6578 179.14 47.7969 179.052C24.9438 177.265 6.95664 158.155 6.95664 134.844Z" fill="#231F20"/>
</g>
<path d="M154.113 124.565C158.315 124.565 161.721 121.159 161.721 116.957C161.721 112.755 158.315 109.348 154.113 109.348C149.911 109.348 146.504 112.755 146.504 116.957C146.504 121.159 149.911 124.565 154.113 124.565Z" fill="#53CAF9"/>
<path d="M154.113 159.83C158.315 159.83 161.721 156.424 161.721 152.222C161.721 148.02 158.315 144.613 154.113 144.613C149.911 144.613 146.504 148.02 146.504 152.222C146.504 156.424 149.911 159.83 154.113 159.83Z" fill="#EFBA00"/>
<path d="M136.478 142.196C140.68 142.196 144.087 138.789 144.087 134.587C144.087 130.385 140.68 126.979 136.478 126.979C132.276 126.979 128.87 130.385 128.87 134.587C128.87 138.789 132.276 142.196 136.478 142.196Z" fill="#73C470"/>
<path d="M171.743 142.196C175.945 142.196 179.352 138.789 179.352 134.587C179.352 130.385 175.945 126.979 171.743 126.979C167.541 126.979 164.135 130.385 164.135 134.587C164.135 138.789 167.541 142.196 171.743 142.196Z" fill="#F74848"/>
<path d="M55 128.936H46.9566V120.893C46.9566 118.011 44.6207 115.675 41.7391 115.675H40.8695C37.9883 115.675 35.652 118.011 35.652 120.893V128.936H27.6086C24.7274 128.936 22.391 131.272 22.391 134.154V135.023C22.391 137.905 24.727 140.241 27.6086 140.241H35.6523V148.284C35.6523 151.165 37.9883 153.502 40.8699 153.502H41.7395C44.6207 153.502 46.957 151.166 46.957 148.284V140.241H55C57.8813 140.241 60.2176 137.905 60.2176 135.023V134.154C60.2176 131.272 57.8813 128.936 55 128.936Z" fill="#B4CCCB"/>
<path opacity="0.1" d="M86.7039 152.326C85.034 151.652 83.134 152.459 82.4594 154.129C79.2957 161.964 73.9539 168.409 67.2887 172.886C68.7 172.35 73.6223 170.596 80.966 169.221C84.0574 165.49 86.6191 161.246 88.507 156.57C89.1812 154.9 88.3738 152.999 86.7039 152.326Z" fill="#231F20"/>
<path opacity="0.1" d="M117.54 154.128C116.866 152.458 114.966 151.652 113.296 152.325C111.626 152.999 110.819 154.9 111.493 156.57C113.381 161.248 115.944 165.493 119.037 169.223C123.491 170.079 128.089 171.284 132.775 172.927C126.08 168.448 120.714 161.989 117.54 154.128Z" fill="#231F20"/>
<path d="M83.4781 90.4984V96.5449C83.4781 99.4262 85.8141 101.763 88.6957 101.763H109.3C112.181 101.763 114.517 99.4266 114.517 96.5449V90.4984H83.4781Z" fill="#8AACAD"/>
<path opacity="0.1" d="M90.4348 96.5449V90.4984H83.4781V96.5449C83.4781 99.4262 85.8141 101.763 88.6957 101.763H95.6523C92.7707 101.762 90.4348 99.4262 90.4348 96.5449Z" fill="#231F20"/>
</svg>
