<svg xmlns="http://www.w3.org/2000/svg" viewBox="0 0 36 41"><defs><style>.cls-1,.cls-4{fill:none;}.cls-2{fill:#b7e8f2;}.cls-3{fill:#7bdcf0;}.cls-4{stroke:#7bdcf0;stroke-miterlimit:10;}</style></defs><title>Asset 2</title><g id="Layer_2" data-name="Layer 2"><g id="Layer_1-2" data-name="Layer 1"><polygon class="cls-1" points="14.3 25.64 15.5 24.96 16.39 24.44 16.4 24.44 16.91 24.14 19.52 25.64 19.52 29.83 23.39 27.59 23.39 14.39 21.61 15.43 21.61 15.44 20.42 16.12 19.52 16.64 19.52 16.64 19 16.94 16.39 15.44 16.39 11.25 12.52 13.49 12.52 26.69 14.3 25.65 14.3 25.64"/><path class="cls-2" d="M10.27,29.51a6.77,6.77,0,0,1,1-1.67,4.43,4.43,0,0,1,1.29-1.15V13.49l-2.45-1.42h0v3.43q0,1.78,0,4.11c0,1.55-.06,3.41-.12,5.57V31.1h0A4.87,4.87,0,0,1,10.27,29.51Z"/><polygon class="cls-2" points="12.52 32.69 12.52 32.68 12.52 32.68 12.52 32.69"/><path class="cls-2" d="M11.74,11.09l-1.67,1,2.45,1.42,3.87-2.24v-3c-1,.66-1.9,1.21-2.65,1.66Z"/><path class="cls-2" d="M7.3,32.69l2.61,1.5,2.61-1.51L10,31.24Z"/><path class="cls-2" d="M14.19,28.89l-1.67.94v2.85l1.78-1V28.83Z"/><path class="cls-2" d="M11.31,30.51,10,31.24l2.52,1.44h0V29.83Z"/><polygon class="cls-3" points="16.4 24.44 16.39 24.44 16.39 24.44 16.4 24.44"/><path class="cls-3" d="M16.39,15.44,19,16.94l.52-.3L17,15.18Z"/><polygon class="cls-3" points="20.42 16.12 21.61 15.44 21.61 15.43 20.42 16.12"/><path class="cls-2" d="M19,6.74q.09,1.86.12,3.15c0,.34,0,.66,0,1l2.47-1.43V8.24a1.74,1.74,0,0,0-.78-1.65l-2.61-1.5A1.74,1.74,0,0,1,19,6.74Z"/><polygon class="cls-2" points="21.61 15.44 21.61 15.43 21.61 15.43 21.61 15.44"/><path class="cls-3" d="M13.89,28.73l.41-.25V25.65l-1.78,1v2.85Z"/><polygon class="cls-3" points="16.39 24.44 15.5 24.96 16.39 24.44 16.39 24.44"/><path class="cls-3" d="M9.91,31.1V25.19q-.09-3.33-.12-5.7c0-1.58,0-3,0-4.16V11.9c.54-.32,1.11-.65,1.7-1l2.07-1.14,2.86-1.54,2.5,1.43c0-.82.06-1.79.11-2.93a1.74,1.74,0,0,0-.78-1.65,1.76,1.76,0,0,0-1.83.15L9.91,9a4.25,4.25,0,0,0-1.27,1.15,7.47,7.47,0,0,0-1,1.67,4.4,4.4,0,0,0-.38,1.68v19.2Z"/><path class="cls-3" d="M16.91,15.07V12.14L18.86,11c0-.38,0-.78,0-1.21l-2.49,1.44v4.19Z"/><path class="cls-3" d="M12.52,29.54V26.69a4.43,4.43,0,0,0-1.29,1.15,6.77,6.77,0,0,0-1,1.67,4.87,4.87,0,0,0-.35,1.59l1.18-.71Z"/><path class="cls-3" d="M18.88,9.81V9.67l-2.5-1.43v3Z"/><path class="cls-3" d="M9.91,31.18s0-.06,0-.08h0v.08Z"/><path class="cls-3" d="M10.06,15.51V12.08h0L9.91,12v13.2c.06-2.16.1-4,.12-5.57S10.06,16.7,10.06,15.51Z"/><path class="cls-3" d="M10.07,12.07l1.67-1,2-1.19c.75-.45,1.63-1,2.65-1.66L9.91,12Z"/><path class="cls-3" d="M9.91,31.19h0L7.3,32.69,10,31.24Z"/><path class="cls-3" d="M12.52,29.67v.16l1.67-.94.11-.06v-.19Z"/><path class="cls-3" d="M9.91,31.18h0l.09,0,1.31-.73,1.21-.68v-.16Z"/><polygon class="cls-3" points="16.39 24.44 16.39 24.44 16.39 24.44 16.39 24.44"/><path class="cls-3" d="M16.91,15.14h0l-.52.3.58-.26Z"/><path class="cls-3" d="M19,10.94l.14-.08c0-.31,0-.63,0-1q0-1.29-.12-3.15v4.2Z"/><path class="cls-3" d="M16.91,15.07l-.52.37.52-.3Z"/><polygon class="cls-3" points="16.39 24.44 16.39 24.44 16.39 24.44 16.39 24.44"/><path class="cls-3" d="M19,10.94V9.74l-.12.07c0,.43,0,.83,0,1.21Z"/><path class="cls-3" d="M19,6.74c-.05,1.14-.09,2.11-.11,2.93l.11.07Z"/><path class="cls-3" d="M9.91,31.1,7.3,32.69l2.61-1.51Z"/><path class="cls-3" d="M16.39,8.24,13.53,9.78l-2.07,1.14c-.59.33-1.16.66-1.7,1v3.43c0,1.19,0,2.58,0,4.16s.06,3.48.12,5.7V12Z"/><path class="cls-3" d="M13.89,28.73l-1.37.81v.13l1.78-1v-.16Z"/><path class="cls-3" d="M12.52,29.54l-1.42.85-1.18.71s0,0,0,.08l2.61-1.51Z"/><path class="cls-3" d="M18.88,9.81,19,9.74l-.11-.07v.14Z"/><polygon class="cls-3" points="9.91 31.18 9.91 31.19 9.91 31.18 9.91 31.18"/><path class="cls-2" d="M25.64,11.57a6.77,6.77,0,0,1-1,1.67,4.43,4.43,0,0,1-1.29,1.15v13.2L25.85,29h0V25.57q0-1.79,0-4.11c0-1.55.06-3.41.12-5.57V10h0A4.4,4.4,0,0,1,25.64,11.57Z"/><polygon class="cls-2" points="23.39 8.39 23.39 8.4 23.4 8.4 23.39 8.39"/><path class="cls-2" d="M24.17,30l1.68-1-2.46-1.42-3.87,2.24v3c1-.66,1.91-1.21,2.66-1.66Z"/><path class="cls-2" d="M28.61,8.39,26,6.89,23.4,8.4l2.52,1.45Z"/><path class="cls-2" d="M21.73,12.19l1.66-.94V8.4l-1.78,1v2.82Z"/><path class="cls-2" d="M19.15,12.15v1.28l.21.12,2.25-1.3V9.43l-2.47,1.43C19.15,11.32,19.15,11.76,19.15,12.15Z"/><path class="cls-2" d="M18.85,12c0-.3,0-.62,0-1l-1.95,1.12,1.94,1.12Z"/><path class="cls-2" d="M19,13.34l.15.09V12.15c0-.39,0-.83,0-1.29l-.14.08Z"/><path class="cls-2" d="M18.85,12v1.29l.15.08v-2.4l-.14.08C18.86,11.35,18.85,11.67,18.85,12Z"/><path class="cls-2" d="M24.61,10.57c.4-.23.84-.47,1.31-.72L23.4,8.4h0v2.85Z"/><polygon class="cls-3" points="19.52 16.64 19.52 16.64 19.52 16.64 19.52 16.64"/><path class="cls-3" d="M18.09,14.63c-.28.15-.66.34-1.12.55l2.55,1.46h0q-.12-1.2-.15-1.86c0-.23,0-.43,0-.64L19.15,14h0Z"/><path class="cls-3" d="M19.36,14.14c0-.19,0-.41,0-.59h0l-.21-.12V14Z"/><path class="cls-3" d="M18.85,13.85v-.59l-1.94-1.12v2.93l.91-.61C18.19,14.23,18.53,14,18.85,13.85Z"/><path class="cls-3" d="M16.91,15.14l.06,0c.46-.21.84-.4,1.12-.55l1.06-.6h0L19,13.94l-2.09,1.2Z"/><path class="cls-3" d="M19,13.94l.15.08v-.59L19,13.34Z"/><path class="cls-3" d="M18.85,13.85c-.32.18-.66.38-1,.61l-.91.61v.07L19,13.94v-.6l-.15-.08Z"/><polygon class="cls-3" points="15.5 24.96 14.3 25.64 14.31 25.65 15.5 24.96"/><path class="cls-3" d="M19.52,25.64l-2.61-1.5-.51.3,2.54,1.46Z"/><path class="cls-3" d="M17.83,26.45c.28-.15.65-.34,1.11-.55L16.4,24.44h0q.12,1.2.15,1.86c0,.23,0,.43,0,.64l.2.12h0Z"/><path class="cls-3" d="M16.26,26.77c0-.21,0-.41,0-.64,0-.43.06-1,.12-1.69L15.5,25l-1.19.69Z"/><path class="cls-3" d="M16.39,24.44h0v2.4l.17.1c0-.21,0-.41,0-.64Q16.51,25.64,16.39,24.44Z"/><path class="cls-3" d="M16.39,24.44c-.06.7-.1,1.26-.12,1.69,0,.23,0,.43,0,.64l.13.07v-2.4Z"/><polygon class="cls-2" points="14.3 25.64 14.3 25.65 14.31 25.65 14.3 25.64"/><path class="cls-2" d="M16.91,34.34q-.09-1.86-.12-3.15c0-.34,0-.66,0-1L14.3,31.65v1.19a1.74,1.74,0,0,0,.78,1.65L17.69,36A1.74,1.74,0,0,1,16.91,34.34Z"/><path class="cls-2" d="M16.76,28.93V27.65l-.2-.12-2.26,1.3v2.82l2.48-1.43C16.77,29.76,16.76,29.32,16.76,28.93Z"/><path class="cls-2" d="M16.56,26.94c0,.19,0,.41,0,.59h0l.2.12v-.59Z"/><path class="cls-2" d="M16.26,26.77l-2-1.12h0v2.83l1.94-1.13C16.24,27.17,16.25,27,16.26,26.77Z"/><path class="cls-2" d="M14.3,28.64v.19l2.26-1.3-.17-.09Z"/><path class="cls-2" d="M16.56,26.94l-.17-.1v.6l.17.09h0C16.57,27.35,16.56,27.13,16.56,26.94Z"/><path class="cls-2" d="M16.24,27.35,14.3,28.48v.16l2.09-1.2v-.6l-.13-.07C16.25,27,16.24,27.17,16.24,27.35Z"/><path class="cls-3" d="M22,12.35l-.42.25v2.83l1.78-1V11.54Z"/><polygon class="cls-3" points="19.52 16.64 20.42 16.12 19.52 16.64 19.52 16.64"/><path class="cls-3" d="M26,15.89q.09,3.33.12,5.7c0,1.58,0,3,0,4.16v3.43c-.54.32-1.1.65-1.69,1L22.39,31.3l-2.87,1.54L17,31.41c0,.82-.06,1.79-.12,2.93A1.74,1.74,0,0,0,17.69,36a1.76,1.76,0,0,0,1.83-.15L26,32.09a4.27,4.27,0,0,0,1.28-1.15,7.47,7.47,0,0,0,1-1.67,4.38,4.38,0,0,0,.37-1.68V8.39L26,10Z"/><path class="cls-3" d="M19,26v2.93l-1.94,1.12c0,.38,0,.78,0,1.21l2.49-1.44V25.64Z"/><path class="cls-3" d="M17.06,29.11v.95L19,28.94l-1.94-1.12Z"/><path class="cls-3" d="M17.06,27.23v.59L19,28.94V26l-.9.61C17.73,26.85,17.38,27.05,17.06,27.23Z"/><path class="cls-3" d="M19.66,14.31c0,.21,0,.41,0,.64,0,.43-.06,1-.12,1.69l.9-.52,1.19-.69Z"/><path class="cls-3" d="M19.67,13.73c0,.18,0,.39,0,.58l1.95,1.12h0V12.6Z"/><path class="cls-3" d="M23.39,11.54v2.85a4.43,4.43,0,0,0,1.29-1.15,6.77,6.77,0,0,0,1-1.67A4.4,4.4,0,0,0,26,10l-1.17.71Z"/><path class="cls-3" d="M17,31.27v.14l2.49,1.43v-3Z"/><path class="cls-3" d="M25.85,25.57V29h0l.15.08V15.89c-.06,2.16-.1,4-.12,5.57S25.85,24.38,25.85,25.57Z"/><path class="cls-3" d="M26,10h0V9.9h0S26,10,26,10Z"/><path class="cls-3" d="M25.85,29l-1.68,1-2,1.19c-.75.45-1.64,1-2.66,1.66L26,29.09Z"/><path class="cls-3" d="M23.39,11.41v-.16l-1.66.94-.12.06v.19Z"/><path class="cls-3" d="M26,9.89h0l2.61-1.51L25.92,9.85Z"/><path class="cls-3" d="M21.61,12.44v-.19l-2.25,1.3.16.09Z"/><path class="cls-3" d="M26,9.9h0l-.08,0c-.47.25-.91.49-1.31.72l-1.22.68v.16Z"/><polygon class="cls-3" points="19.52 16.64 19.52 16.64 19.52 16.64 19.52 16.64"/><path class="cls-3" d="M19.52,16.64h0v-2.4l-.16-.1c0,.21,0,.41,0,.64Q19.4,15.44,19.52,16.64Z"/><path class="cls-3" d="M19.36,14.14l.16.1v-.6l-.16-.09h0C19.34,13.73,19.35,14,19.36,14.14Z"/><path class="cls-3" d="M19,25.94h0l.52-.3-.58.26Z"/><path class="cls-3" d="M19,25.94l-.06,0c-.46.21-.83.4-1.11.55l-1.07.6h0l.15.08L19,25.94Z"/><path class="cls-3" d="M16.91,30.14l-.13.08c0,.31,0,.63,0,1q0,1.29.12,3.15v-4.2Z"/><path class="cls-3" d="M16.91,27.74l-.15-.09v1.28c0,.39,0,.83,0,1.29l.13-.08Z"/><path class="cls-3" d="M16.91,27.14l-.15-.08v.59l.15.09Z"/><path class="cls-3" d="M16.91,34.34c.06-1.14.1-2.11.12-2.93l-.12-.07Z"/><path class="cls-3" d="M22,12.35l1.36-.81v-.13l-1.78,1v.16Z"/><path class="cls-3" d="M19,26l.52-.37-.52.3Z"/><path class="cls-3" d="M19.52,32.84l2.87-1.54,2.07-1.14c.59-.33,1.15-.66,1.69-1V25.75c0-1.19,0-2.58,0-4.16s-.06-3.48-.12-5.7v13.2Z"/><polygon class="cls-3" points="19.52 16.64 19.52 16.64 19.52 16.64 19.52 16.64"/><path class="cls-3" d="M26,10l2.61-1.59L26,9.9Z"/><path class="cls-3" d="M16.91,30.14v1.2l.12-.07c0-.43,0-.83,0-1.21Z"/><path class="cls-3" d="M17.06,29.11V27.82l-.15-.08v2.4l.15-.08Z"/><path class="cls-3" d="M17.06,27.23c.32-.18.67-.38,1-.61L19,26v-.07l-2.09,1.2v.6l.15.08Z"/><path class="cls-3" d="M19.52,16.64c.06-.7.1-1.26.12-1.69,0-.23,0-.43,0-.64l-.14-.07v2.4Z"/><path class="cls-3" d="M19.67,13.73l1.94-1.13v-.16l-2.09,1.2v.6l.14.07C19.66,14.12,19.67,13.91,19.67,13.73Z"/><path class="cls-3" d="M24.82,10.69,26,10s0-.05,0-.08l-2.61,1.51v.13Z"/><path class="cls-3" d="M17,31.27l-.12.07.12.07v-.14Z"/><polygon class="cls-3" points="26 9.9 26 9.89 26 9.9 26 9.9"/><rect class="cls-4" x="0.5" y="0.5" width="35" height="40" rx="4.56"/></g></g></svg>